<svg width="50" height="50" viewBox="0 0 50 50" fill="none" xmlns="http://www.w3.org/2000/svg">
<path fill-rule="evenodd" clip-rule="evenodd" d="M12.7629 2.99495C12.8356 3.63205 12.6695 4.0427 11.9928 3.96914C11.9201 3.33203 12.0862 2.92139 12.7629 2.99495Z" fill="black"/>
<path fill-rule="evenodd" clip-rule="evenodd" d="M30.4821 2.99487C30.8247 2.99487 31.1674 2.99487 31.51 2.99487C31.8098 3.83991 30.0742 4.12718 30.4821 2.99487Z" fill="black"/>
<path fill-rule="evenodd" clip-rule="evenodd" d="M15.3309 4.21235C16.0069 4.13938 16.1736 4.55002 16.101 5.18655C15.7584 5.18655 15.4157 5.18655 15.0737 5.18655C14.9656 4.67744 15.2502 4.54191 15.3309 4.21235Z" fill="black"/>
<path fill-rule="evenodd" clip-rule="evenodd" d="M42.2958 4.45618C42.5523 4.45618 42.8094 4.45618 43.0665 4.45618C43.0665 4.7811 43.0665 5.10602 43.0665 5.43037C42.7233 5.43037 42.3819 5.43037 42.0387 5.43037C42.0069 4.99366 42.3532 4.91721 42.2958 4.45618Z" fill="black"/>
<path fill-rule="evenodd" clip-rule="evenodd" d="M20.724 5.18652C20.9811 5.18652 21.2376 5.18652 21.4947 5.18652C21.5619 5.98059 21.1893 6.3588 20.4669 6.40455C20.385 5.83985 20.5084 5.46975 20.724 5.18652Z" fill="black"/>
<path fill-rule="evenodd" clip-rule="evenodd" d="M46.9185 5.43042C47.175 5.43042 47.4315 5.43042 47.6892 5.43042C47.6892 5.75534 47.6892 6.07969 47.6892 6.40461C46.8312 6.64903 46.8464 6.06695 46.9185 5.43042Z" fill="black"/>
<path fill-rule="evenodd" clip-rule="evenodd" d="M17.3853 5.67419C18.0394 5.69852 17.9923 6.58178 17.6424 6.89165C16.5914 7.02544 16.774 5.83984 17.3853 5.67419Z" fill="black"/>
<path fill-rule="evenodd" clip-rule="evenodd" d="M26.8869 6.40454C27.3382 6.46304 27.4732 6.82329 27.4005 7.37873C27.1434 7.37873 26.8869 7.37873 26.6304 7.37873C26.5223 6.86963 26.8063 6.7341 26.8869 6.40454Z" fill="black"/>
<path fill-rule="evenodd" clip-rule="evenodd" d="M12.5058 13.2239C7.5297 14.3238 6.66982 9.34163 9.16764 7.37877C10.6138 7.67589 14.1022 6.27831 14.8168 8.84006C15.312 10.6129 13.941 12.1721 12.5058 13.2239ZM9.68125 12.0065C10.6529 12.6007 11.7675 12.4218 13.02 12.2497C13.8573 11.5663 14.7368 9.06768 13.2765 8.35296C14.3441 10.9442 11.0578 10.9773 9.68125 12.0065Z" fill="black"/>
<path fill-rule="evenodd" clip-rule="evenodd" d="M5.05863 8.10908C5.17649 8.87013 4.5102 8.88809 3.7749 8.84002C3.7749 8.59676 3.7749 8.35292 3.7749 8.10908C4.11202 7.79632 4.72151 7.79632 5.05863 8.10908Z" fill="black"/>
<path fill-rule="evenodd" clip-rule="evenodd" d="M39.7277 8.10913C39.9848 8.10913 40.2407 8.10913 40.4978 8.10913C40.5082 8.84991 40.6481 9.71232 39.7277 9.57042C39.3766 9.25882 39.3766 8.42073 39.7277 8.10913Z" fill="black"/>
<path fill-rule="evenodd" clip-rule="evenodd" d="M32.0229 9.57046C31.9887 11.9996 31.9551 13.9022 31.7652 15.66C28.5474 15.2841 25.8059 17.0356 26.1161 20.7743C27.4713 20.8107 29.3266 20.7401 30.9951 20.5304C31.1856 22.3856 30.2946 24.0652 30.9951 25.6452C30.3386 26.7266 28.5309 26.7161 26.6303 26.62C26.2755 27.3249 26.0434 29.6839 26.8868 30.0291C25.713 31.0334 26.0068 34.4326 26.3732 36.1187C24.9906 37.4045 21.8558 37.0297 19.6963 37.58C18.5567 34.4066 18.5677 30.0858 18.669 26.3762C17.5496 25.9672 15.8988 26.9345 14.303 26.8638C13.9165 25.1193 13.925 23.0007 13.79 21.0181C16.0924 20.4789 16.8497 21.1936 18.9255 20.531C19.0263 12.8319 23.7612 9.52876 32.0229 9.57046ZM20.2105 20.7743C19.5076 22.1377 16.6952 21.5 15.0744 21.9917C14.9229 23.4107 15.3235 24.8512 15.0744 25.6452C16.8858 25.8207 17.7499 25.0979 19.4404 25.1581C20.0144 28.7543 19.2572 33.6119 20.9812 36.1181C21.6964 36.2895 23.9603 36.0949 25.0895 35.8737C24.7841 32.6088 25.1469 29.0219 25.3466 25.8891C26.9155 25.9151 28.2615 25.7321 29.4549 25.4014C29.9715 24.6739 29.6008 23.1037 29.7126 21.9917C28.3037 21.2376 26.2517 22.5483 24.833 21.7484C24.7524 17.4503 26.5222 14.9071 30.7392 14.6853C30.7374 12.9083 30.7966 11.8924 30.9957 10.7885C24.2021 10.0159 19.3011 14.2468 20.2105 20.7743Z" fill="black"/>
<path fill-rule="evenodd" clip-rule="evenodd" d="M21.4942 10.0581C21.6658 10.0581 21.8362 10.0581 22.0072 10.0581C21.9601 10.2649 22.1073 10.2875 22.2643 10.3014C22.2643 10.4641 22.2643 10.6263 22.2643 10.7885C22.0456 10.7439 22.0224 10.8834 22.0072 11.0317C21.8362 11.0317 21.6652 11.0317 21.4942 11.0317C21.5412 10.8249 21.394 10.8024 21.2371 10.7885C21.2371 10.6257 21.2371 10.4635 21.2371 10.3014C21.4563 10.3465 21.4795 10.2064 21.4942 10.0581Z" fill="black"/>
<path fill-rule="evenodd" clip-rule="evenodd" d="M36.1325 10.5452C36.4739 10.5452 36.8177 10.5452 37.1591 10.5452C37.269 11.0543 36.9838 11.1892 36.9032 11.5194C36.2259 11.5923 36.0604 11.1817 36.1325 10.5452Z" fill="black"/>
<path fill-rule="evenodd" clip-rule="evenodd" d="M38.4441 12.493C38.4441 12.7368 38.4441 12.9807 38.4441 13.2239C37.9885 13.1683 37.1573 13.4689 37.4157 12.7368C37.6453 12.5475 37.9965 12.4751 38.4441 12.493Z" fill="black"/>
<path fill-rule="evenodd" clip-rule="evenodd" d="M15.3309 13.4677C16.6995 13.3171 16.5156 14.8537 15.0737 14.4419C14.9656 13.9328 15.2502 13.7967 15.3309 13.4677Z" fill="black"/>
<path fill-rule="evenodd" clip-rule="evenodd" d="M34.0776 13.711C34.5417 14.1292 33.9982 14.669 33.3068 14.6852C33.2354 14.0487 33.4009 13.638 34.0776 13.711Z" fill="black"/>
<path fill-rule="evenodd" clip-rule="evenodd" d="M41.011 14.6852C41.2681 14.6852 41.5258 14.6852 41.7817 14.6852C41.8911 15.1943 41.6065 15.3298 41.5258 15.66C41.0739 15.6009 40.9402 15.2406 41.011 14.6852Z" fill="black"/>
<path fill-rule="evenodd" clip-rule="evenodd" d="M44.0932 16.6335C44.0932 16.8768 44.0932 17.1212 44.0932 17.3644C43.6376 17.3088 42.8082 17.61 43.0659 16.8773C43.2943 16.688 43.6467 16.6156 44.0932 16.6335Z" fill="black"/>
<path fill-rule="evenodd" clip-rule="evenodd" d="M7.88371 17.1213C8.29839 17.0524 8.32587 17.3506 8.65382 17.3645C8.73077 18.0063 8.29839 18.1638 7.62721 18.0949C7.51789 17.5858 7.80249 17.4497 7.88371 17.1213Z" fill="black"/>
<path fill-rule="evenodd" clip-rule="evenodd" d="M16.6152 17.1213C16.7343 17.8835 16.3916 18.2084 15.5879 18.0949C15.4682 17.3327 15.8109 17.0078 16.6152 17.1213Z" fill="black"/>
<path fill-rule="evenodd" clip-rule="evenodd" d="M28.1714 17.1213C28.9439 16.8757 28.6263 17.6634 28.6844 18.0949C28.4285 18.0949 28.1714 18.0949 27.9142 18.0949C27.8055 17.5858 28.0914 17.4497 28.1714 17.1213Z" fill="black"/>
<path fill-rule="evenodd" clip-rule="evenodd" d="M42.2957 17.364C42.3684 18.0005 42.2017 18.4117 41.5256 18.3382C41.3894 18.1424 41.2575 17.9426 41.2679 17.6078C41.4969 17.419 41.8481 17.346 42.2957 17.364Z" fill="black"/>
<path fill-rule="evenodd" clip-rule="evenodd" d="M39.2143 18.095C39.3218 19.9837 38.4564 20.948 36.3885 20.7743C34.7274 19.0564 37.3143 16.4344 39.2143 18.095ZM38.4442 18.8253C38.5596 18.4274 37.0444 18.4274 37.1592 18.8253C37.1904 19.1723 38.5669 19.829 38.4442 18.8253Z" fill="black"/>
<path fill-rule="evenodd" clip-rule="evenodd" d="M33.5644 18.5826C33.2212 18.5826 32.8804 18.5826 32.536 18.5826C32.3351 17.6443 33.7666 17.6443 33.5644 18.5826Z" fill="black"/>
<path fill-rule="evenodd" clip-rule="evenodd" d="M8.65397 19.0691C8.91047 19.0691 9.16819 19.0691 9.42469 19.0691C9.49675 19.7062 9.33125 20.1168 8.65397 20.0439C8.22586 19.5597 8.67718 19.734 8.65397 19.0691Z" fill="black"/>
<path fill-rule="evenodd" clip-rule="evenodd" d="M15.3309 19.0691C16.0943 19.0905 16.018 20.5217 15.0738 20.2871C14.9926 19.7224 15.1153 19.3517 15.3309 19.0691Z" fill="black"/>
<path fill-rule="evenodd" clip-rule="evenodd" d="M30.2249 19.069C30.297 19.7061 30.1321 20.1168 29.4542 20.0438C29.3821 19.4061 29.5489 18.9955 30.2249 19.069Z" fill="black"/>
<path fill-rule="evenodd" clip-rule="evenodd" d="M46.1477 19.069C47.1371 18.8773 47.1371 20.2349 46.1477 20.0438C46.1477 19.7183 46.1477 19.3939 46.1477 19.069Z" fill="black"/>
<path fill-rule="evenodd" clip-rule="evenodd" d="M43.0667 21.0175C43.3232 21.0175 43.5797 21.0175 43.8374 21.0175C43.9094 21.6546 43.7433 22.0652 43.0667 21.9917C43.0667 21.6673 43.0667 21.3424 43.0667 21.0175Z" fill="black"/>
<path fill-rule="evenodd" clip-rule="evenodd" d="M37.4163 22.4788C37.7595 22.4788 38.1015 22.4788 38.4447 22.4788C38.4123 23.0985 38.0703 23.4234 37.4163 23.453C37.4163 23.1286 37.4163 22.8037 37.4163 22.4788Z" fill="black"/>
<path fill-rule="evenodd" clip-rule="evenodd" d="M9.93817 22.722C11.0106 22.8848 10.0573 24.2343 9.42456 23.4524C9.51495 23.1327 9.87588 23.0701 9.93817 22.722Z" fill="black"/>
<path fill-rule="evenodd" clip-rule="evenodd" d="M5.82872 22.9658C7.29016 23.9545 4.33736 24.5922 5.82872 22.9658V22.9658Z" fill="black"/>
<path fill-rule="evenodd" clip-rule="evenodd" d="M8.39747 23.4529C8.81214 23.3845 8.83962 23.6834 9.16819 23.6967C9.24514 24.3385 8.81214 24.496 8.14036 24.4277C8.03165 23.918 8.31685 23.7825 8.39747 23.4529Z" fill="black"/>
<path fill-rule="evenodd" clip-rule="evenodd" d="M10.9655 25.6445C11.7704 25.8125 11.3002 26.2938 11.222 26.8631C10.0745 26.9031 10.5594 26.0054 10.9655 25.6445Z" fill="black"/>
<path fill-rule="evenodd" clip-rule="evenodd" d="M39.7278 25.8885C39.8011 26.525 39.6344 26.9363 38.9571 26.8633C38.8844 26.2256 39.0512 25.8149 39.7278 25.8885Z" fill="black"/>
<path fill-rule="evenodd" clip-rule="evenodd" d="M42.0388 26.1323C42.2105 26.1323 42.3821 26.1323 42.5525 26.1323C42.506 26.3391 42.6526 26.3617 42.8096 26.3756C42.8096 26.5372 42.8096 26.7005 42.8096 26.8633C42.5922 26.8175 42.5677 26.9577 42.5525 27.1059C42.3821 27.1059 42.2105 27.1059 42.0388 27.1059C42.0859 26.8986 41.9393 26.8766 41.7817 26.8633C41.7817 26.7005 41.7817 26.5372 41.7817 26.3756C42.0004 26.4208 42.0242 26.28 42.0388 26.1323Z" fill="black"/>
<path fill-rule="evenodd" clip-rule="evenodd" d="M32.2802 28.0806C32.9562 28.0065 33.123 28.4177 33.0509 29.0548C32.7083 29.0548 32.3657 29.0548 32.0231 29.0548C31.9913 28.617 32.337 28.5399 32.2802 28.0806Z" fill="black"/>
<path fill-rule="evenodd" clip-rule="evenodd" d="M29.4544 28.5671C29.9075 28.6256 30.0413 28.9871 29.9686 29.5419C29.7121 29.5419 29.4544 29.5419 29.1985 29.5419C29.0898 29.0322 29.3744 28.8979 29.4544 28.5671Z" fill="black"/>
<path fill-rule="evenodd" clip-rule="evenodd" d="M40.2408 29.542C40.5058 30.5353 39.0413 30.8399 39.2142 29.7858C39.4414 29.5964 39.7944 29.5234 40.2408 29.542Z" fill="black"/>
<path fill-rule="evenodd" clip-rule="evenodd" d="M6.34294 32.4645C7.01961 32.391 7.18573 32.8022 7.11305 33.4399C6.77044 33.4399 6.42783 33.4399 6.08644 33.4399C5.97712 32.9296 6.26171 32.7935 6.34294 32.4645Z" fill="black"/>
<path fill-rule="evenodd" clip-rule="evenodd" d="M16.3582 32.7089C16.3271 33.3269 15.9851 33.653 15.3316 33.6819C14.5316 33.0112 15.651 31.9496 16.3582 32.7089Z" fill="black"/>
<path fill-rule="evenodd" clip-rule="evenodd" d="M11.9927 33.1954C12.1716 34.0955 11.586 34.271 10.709 34.1702C10.709 33.9263 10.709 33.6819 10.709 33.4398C11.0064 33.2336 11.3973 33.1178 11.9927 33.1954Z" fill="black"/>
<path fill-rule="evenodd" clip-rule="evenodd" d="M35.1047 34.1697C34.7615 34.1697 34.4207 34.1697 34.0769 34.1697C33.8766 33.232 35.3069 33.232 35.1047 34.1697Z" fill="black"/>
<path fill-rule="evenodd" clip-rule="evenodd" d="M35.6177 34.4123C35.6177 34.6561 35.6177 34.9005 35.6177 35.1432C34.7994 34.999 34.8238 35.5996 34.334 35.1432C34.5697 34.7163 34.8128 34.2976 35.6177 34.4123Z" fill="black"/>
<path fill-rule="evenodd" clip-rule="evenodd" d="M14.8174 35.6315C14.8174 35.9553 14.8174 36.2808 14.8174 36.6046C14.4748 36.6046 14.1322 36.6046 13.7908 36.6046C13.6711 35.8429 14.0137 35.5168 14.8174 35.6315Z" fill="black"/>
<path fill-rule="evenodd" clip-rule="evenodd" d="M11.9928 37.0922C11.8792 38.2025 11.1586 38.7359 10.452 39.2844C9.07175 38.6792 8.85739 38.3143 8.91052 36.6039C9.61101 35.3124 11.5879 36.063 11.9928 37.0922ZM10.1949 38.0658C11.139 38.3004 11.216 36.871 10.452 36.8484C10.557 37.4351 9.98233 37.3777 10.1949 38.0658Z" fill="black"/>
<path fill-rule="evenodd" clip-rule="evenodd" d="M16.6152 39.2845C17.287 39.2156 17.72 39.3725 17.6425 40.0148C17.414 40.2042 17.0623 40.2766 16.6152 40.2581C16.6152 39.9338 16.6152 39.6077 16.6152 39.2845Z" fill="black"/>
<path fill-rule="evenodd" clip-rule="evenodd" d="M42.5524 39.2845C42.9683 39.2156 42.9945 39.5139 43.3231 39.5272C43.4007 40.1683 42.9683 40.3259 42.2959 40.2581C42.1859 39.749 42.4711 39.6135 42.5524 39.2845Z" fill="black"/>
<path fill-rule="evenodd" clip-rule="evenodd" d="M8.39741 40.7458C7.67127 40.5443 7.73234 41.0887 7.11307 40.9891C6.6813 39.8319 8.59101 39.6454 8.39741 40.7458Z" fill="black"/>
<path fill-rule="evenodd" clip-rule="evenodd" d="M25.3466 40.7457C25.7979 40.8042 25.9316 41.1639 25.8596 41.7193C25.6031 41.7193 25.3466 41.7193 25.0888 41.7193C24.9807 41.2102 25.266 41.0747 25.3466 40.7457Z" fill="black"/>
<path fill-rule="evenodd" clip-rule="evenodd" d="M46.9182 40.7457C47.1308 41.4338 46.5555 41.3771 46.6605 41.9632C46.2855 41.7506 45.6663 41.7692 45.8904 40.989C46.1194 40.7996 46.4706 40.7266 46.9182 40.7457Z" fill="black"/>
<path fill-rule="evenodd" clip-rule="evenodd" d="M27.1434 40.989C27.3559 41.6776 26.7818 41.6191 26.8869 42.2076C26.1229 42.185 26.2004 40.7538 27.1434 40.989Z" fill="black"/>
<path fill-rule="evenodd" clip-rule="evenodd" d="M17.6425 42.6935C18.0492 42.7132 18.6221 42.5766 18.6697 42.9374C18.95 43.7923 17.0941 43.5895 17.6425 42.6935Z" fill="black"/>
<path fill-rule="evenodd" clip-rule="evenodd" d="M33.5646 42.6935C33.9915 43.1772 33.5414 43.0028 33.5646 43.6683C32.5765 43.8589 32.5765 42.5018 33.5646 42.6935Z" fill="black"/>
<path fill-rule="evenodd" clip-rule="evenodd" d="M6.8566 43.1807C6.70148 43.6841 6.45963 44.1034 5.57227 43.9117C5.57227 43.6684 5.57227 43.4246 5.57227 43.1807C5.90999 42.868 6.51887 42.868 6.8566 43.1807Z" fill="black"/>
<path fill-rule="evenodd" clip-rule="evenodd" d="M14.3036 43.1806C14.3812 43.8218 13.9476 43.9793 13.2764 43.9116C13.1995 43.2693 13.6325 43.1123 14.3036 43.1806Z" fill="black"/>
<path fill-rule="evenodd" clip-rule="evenodd" d="M45.8912 43.1806C46.563 43.1123 46.9954 43.2693 46.919 43.9116C46.4366 44.3894 45.6823 44.0523 45.8912 43.1806Z" fill="black"/>
<path fill-rule="evenodd" clip-rule="evenodd" d="M27.4004 43.9111C28.3886 43.7199 28.3886 45.0776 27.4004 44.8853C26.9723 44.4011 27.423 44.5754 27.4004 43.9111Z" fill="black"/>
<path fill-rule="evenodd" clip-rule="evenodd" d="M8.65401 44.3986C8.72669 45.0352 8.56057 45.4464 7.8839 45.3723C7.81123 44.7352 7.97734 44.3251 8.65401 44.3986Z" fill="black"/>
<path fill-rule="evenodd" clip-rule="evenodd" d="M29.4544 44.6419C30.2276 44.3963 29.91 45.1846 29.9686 45.6161C29.7121 45.6161 29.4544 45.6161 29.1985 45.6161C29.0898 45.1064 29.3744 44.9714 29.4544 44.6419Z" fill="black"/>
<path fill-rule="evenodd" clip-rule="evenodd" d="M2.23417 45.1296C3.04459 45.1719 3.76585 45.2999 3.77501 46.1033C3.21376 46.5637 2.14134 46.0326 2.23417 45.1296Z" fill="black"/>
<path fill-rule="evenodd" clip-rule="evenodd" d="M21.4944 45.1296C21.8364 45.1296 22.179 45.1296 22.5216 45.1296C22.6407 45.8907 22.2981 46.2162 21.4944 46.1033C21.4944 45.7789 21.4944 45.4534 21.4944 45.1296Z" fill="black"/>
<path fill-rule="evenodd" clip-rule="evenodd" d="M37.159 45.1296C38.232 45.2912 37.2793 46.6407 36.646 45.86C36.7364 45.5409 37.0973 45.476 37.159 45.1296Z" fill="black"/>
<path fill-rule="evenodd" clip-rule="evenodd" d="M33.0509 46.5903C33.515 47.0079 32.9721 47.5471 32.2801 47.5645C32.2081 46.9268 32.3748 46.5167 33.0509 46.5903Z" fill="black"/>
<path fill-rule="evenodd" clip-rule="evenodd" d="M15.8446 46.8336C16.5213 46.7612 16.6874 47.1701 16.6153 47.8078C16.2733 47.8078 15.9307 47.8078 15.5881 47.8078C15.4788 47.2981 15.764 47.1643 15.8446 46.8336Z" fill="black"/>
<path fill-rule="evenodd" clip-rule="evenodd" d="M34.3344 42.6936C31.56 36.8647 40.2657 35.9125 40.2407 40.7458C40.2272 43.5294 36.7804 44.2702 34.3344 42.6936ZM34.8474 40.2581C35.8942 39.789 37.0277 39.4021 38.1868 39.0401C36.977 37.8418 35.0447 39.0007 34.8474 40.2581Z" fill="black"/>
<path fill-rule="evenodd" clip-rule="evenodd" d="M34.8475 2.75164C39.674 3.46173 45.0825 -1.52508 48.7157 1.53361C52.4056 4.63921 45.9852 9.47716 44.3503 11.7626C47.3788 15.0912 50.248 16.2392 49.7429 21.2613C49.429 24.3988 46.1733 26.6014 45.634 29.2981C44.6037 34.4506 47.8741 37.1484 50 40.5019C49.7111 42.3374 50.6107 46.1096 48.9722 47.3213C45.8746 48.0933 44.4272 45.7789 42.0381 45.1296C39.2288 46.6923 36.2931 49.4509 32.5354 49.0258C30.2226 48.7646 28.4442 46.7201 26.1162 46.5909C22.6394 46.398 21.1284 48.5694 17.8984 50C14.4558 49.9467 12.3726 47.2309 9.16698 47.0774C6.25448 46.9402 2.94501 50.0515 0.178472 47.3218C-0.760198 43.2224 2.23536 41.0805 3.77375 38.5541C3.88368 37.1212 2.5224 36.5675 2.48942 35.3871C2.40209 32.2473 6.82611 28.9344 4.03025 25.1581C-1.39717 23.9928 3.77375 19.2654 3.77375 16.1465C3.77375 12.442 -1.10953 10.7085 0.434972 5.67422C0.984005 3.88685 3.02379 0.796306 5.05747 0.802677C6.2447 0.806731 7.39163 1.84463 8.65275 2.02071C11.8474 2.46668 15.1355 -0.494123 17.8996 0.0723219C20.2832 0.561156 21.2017 3.11074 24.5765 2.9949C27.6057 1.573 32.8041 -1.66929 34.8475 2.75164ZM16.3581 2.02071C15.549 2.0572 16.2501 0.662514 15.0744 1.04651C12.5803 1.82263 11.197 3.04934 8.39748 2.75106C6.76503 2.57731 5.02633 1.19537 3.51786 2.02013C2.63965 4.05423 0.606583 5.58792 0.949805 8.10912C1.22585 10.1311 3.24487 12.1223 4.54508 12.9807C4.06751 14.0985 4.62509 14.7072 4.54508 15.66C4.33439 18.1667 1.99413 20.7128 2.23353 22.2355C2.51507 24.0234 4.93716 24.2719 6.08592 25.889C5.84591 26.1496 5.13809 25.9649 5.3152 26.6199C6.16714 29.9983 4.04369 32.5184 3.51725 35.3877C7.06245 39.9992 -0.88173 41.6035 1.20569 47.078C2.00573 47.2118 2.87966 47.2767 3.51725 47.5657C3.36152 46.6065 4.09193 46.4872 4.80159 46.3476C4.80159 46.7537 4.80159 47.1591 4.80159 47.5657C9.43997 44.4161 13.6429 48.4536 18.1555 49.0264C21.0075 47.7018 23.0253 45.2837 26.8869 45.6167C29.2247 45.8183 31.4111 47.9891 33.5644 48.0528C36.6571 48.142 39.8682 44.4815 42.0387 44.3993C44.6495 44.2996 45.6511 47.4151 48.7157 46.5909C51.1848 41.311 45.6798 38.2448 44.8633 33.9264C43.651 27.5049 49.6128 24.9803 48.9728 19.3135C48.8494 18.2252 48.2344 17.2168 47.6891 15.6606C46.1806 14.3255 43.7194 14.3284 43.5796 12.2503C43.3658 9.09258 52.7036 5.74256 47.4319 1.77803C43.0256 1.33205 40.0008 3.18198 34.5929 3.72583C33.8246 1.3558 28.9951 -0.255498 27.9141 2.9949C26.7525 2.56514 25.5622 3.67892 24.0623 3.72526C21.2775 3.81271 19.0233 1.76239 17.1283 0.802677C16.771 1.11312 17.0171 1.9958 16.3581 2.02071Z" fill="black"/>
</svg>
