<svg width="100" height="100" viewBox="0 0 100 100" fill="none" xmlns="http://www.w3.org/2000/svg">
<path d="M85.8554 79.092C85.8284 90.3564 76.4914 99.9427 65.8825 99.9999C63.1793 100.015 60.8923 98.809 58.7514 97.2329C50.3878 91.0749 49.6451 91.0587 41.3073 97.2378C38.2997 99.4666 35.1215 100.349 31.3614 99.7152C21.9003 98.1216 14.3801 89.5285 14.2057 79.7881C14.1419 76.2119 15.3695 73.1018 17.7154 70.433C19.6563 68.2241 21.8892 66.3334 24.1996 64.5584C28.1303 61.539 31.3061 57.8646 34.0056 53.7141C35.9894 50.6637 37.8823 47.5375 40.5155 44.9768C46.1342 39.5124 53.9184 39.5112 59.5346 44.9743C61.4754 46.8613 63.0787 49.0291 64.4622 51.3387C68.0553 57.3326 72.6944 62.301 78.2002 66.5423C81.7283 69.2595 84.8721 72.4057 85.6197 77.1789C85.7425 77.9633 85.8149 78.7539 85.8554 79.092Z" fill="#3F8DB1"/>
<path d="M0 41.0762C0.0601521 37.2451 0.742694 34.0182 2.5669 31.1207C6.33438 25.1355 13.107 24.008 18.5833 28.4283C25.2135 33.7808 27.368 44.7307 23.2666 52.2287C19.531 59.0579 11.8942 60.3445 6.20426 55.0802C2.01939 51.2094 0.274981 46.2484 0 41.0762Z" fill="#3F8DB1"/>
<path d="M23.1008 15.2682C23.1512 12.536 24.0375 8.8032 26.3233 5.50666C31.5921 -2.09078 40.7745 -1.81607 45.3645 6.26492C49.4302 13.4248 49.24 20.7301 44.6672 27.6277C40.2479 34.2917 32.2268 34.5726 27.1089 28.4469C24.623 25.4736 23.1057 20.9539 23.1008 15.2682Z" fill="#3F8DB1"/>
<path d="M76.9812 16.9762C76.7762 21.4163 75.529 25.839 72.0843 29.3705C67.541 34.0282 61.1551 33.9548 56.6424 29.2437C50.2651 22.586 50.4001 9.91947 56.9186 3.41839C61.8266 -1.47669 68.6041 -1.04287 72.9375 4.42276C75.761 7.98282 76.9039 12.0985 76.9812 16.9762Z" fill="#3F8DB1"/>
<path d="M99.9752 39.6951C99.7014 46.108 97.4635 51.6047 92.3236 55.5899C85.2232 61.0965 76.4336 57.8596 74.5161 49.0204C72.9583 41.8406 75.0759 35.6068 80.0378 30.4793C83.3818 27.0249 87.5519 25.1242 92.4267 26.8956C97.4893 28.7353 99.2951 33.0424 99.9641 38.0307C100.038 38.5764 99.9752 39.1407 99.9752 39.6951Z" fill="#3F8DB1"/>
</svg>
