<svg width="48" height="48" viewBox="0 0 48 48" fill="none" xmlns="http://www.w3.org/2000/svg">
<path d="M35.18 24C35.18 26.2112 34.5243 28.3727 33.2958 30.2113C32.0674 32.0498 30.3213 33.4828 28.2784 34.329C26.2355 35.1752 23.9876 35.3966 21.8189 34.9652C19.6502 34.5338 17.6581 33.469 16.0945 31.9055C14.531 30.3419 13.4662 28.3498 13.0348 26.1811C12.6034 24.0124 12.8248 21.7645 13.671 19.7216C14.5172 17.6787 15.9502 15.9326 17.7887 14.7042C19.6273 13.4757 21.7888 12.82 24 12.82C26.9635 12.8253 29.8041 14.0049 31.8996 16.1004C33.9951 18.1959 35.1747 21.0365 35.18 24ZM47.5 14V34C47.496 37.5792 46.0724 41.0107 43.5416 43.5416C41.0107 46.0724 37.5792 47.496 34 47.5H14C10.4208 47.496 6.98932 46.0724 4.45844 43.5416C1.92756 41.0107 0.50397 37.5792 0.5 34V14C0.50397 10.4208 1.92756 6.98932 4.45844 4.45844C6.98932 1.92756 10.4208 0.50397 14 0.5H34C37.5792 0.50397 41.0107 1.92756 43.5416 4.45844C46.0724 6.98932 47.496 10.4208 47.5 14ZM44.5 14C44.4968 11.2162 43.3896 8.54733 41.4211 6.57889C39.4527 4.61044 36.7838 3.50318 34 3.5H14C11.2162 3.50318 8.54733 4.61044 6.57889 6.57889C4.61044 8.54733 3.50318 11.2162 3.5 14V34C3.50318 36.7838 4.61044 39.4527 6.57889 41.4211C8.54733 43.3896 11.2162 44.4968 14 44.5H34C36.7838 44.4968 39.4527 43.3896 41.4211 41.4211C43.3896 39.4527 44.4968 36.7838 44.5 34V14ZM39.74 9.61C39.6773 9.45965 39.6002 9.31565 39.51 9.18C39.4152 9.04658 39.3117 8.91963 39.2 8.8C39.0802 8.68808 38.9529 8.5845 38.819 8.49C38.6838 8.39956 38.5401 8.32253 38.39 8.26C38.2377 8.19978 38.0804 8.15294 37.92 8.12C37.5957 8.0601 37.2633 8.0601 36.939 8.12C36.7785 8.15155 36.6215 8.19843 36.47 8.26C36.3195 8.32253 36.1755 8.39956 36.04 8.49C35.9045 8.58199 35.7773 8.68572 35.66 8.8C35.548 8.91937 35.4445 9.04634 35.35 9.18C35.2598 9.31565 35.1827 9.45965 35.12 9.61C35.0584 9.76192 35.0112 9.91927 34.979 10.08C34.9137 10.4034 34.9137 10.7366 34.979 11.06C35.0112 11.2207 35.0584 11.3781 35.12 11.53C35.1827 11.6804 35.2598 11.8243 35.35 11.96C35.4445 12.0937 35.548 12.2206 35.66 12.34C35.7773 12.4543 35.9045 12.558 36.04 12.65C36.1755 12.7404 36.3195 12.8175 36.47 12.88C36.6215 12.9416 36.7785 12.9884 36.939 13.02C37.2626 13.0867 37.5964 13.0867 37.92 13.02C38.0804 12.9871 38.2377 12.9402 38.39 12.88C38.5401 12.8175 38.6838 12.7404 38.819 12.65C38.9529 12.5555 39.0802 12.4519 39.2 12.34C39.3117 12.2204 39.4152 12.0934 39.51 11.96C39.6928 11.688 39.8186 11.3819 39.88 11.06C39.9467 10.7367 39.9467 10.4033 39.88 10.08C39.8486 9.91919 39.8017 9.76179 39.74 9.61Z" fill="black"/>
</svg>
