<svg width="10" height="10" viewBox="0 0 10 10" fill="none" xmlns="http://www.w3.org/2000/svg">
<path d="M8.58562 7.90919C8.58292 9.03563 7.64921 9.99426 6.58832 9.99998C6.31801 10.0015 6.08931 9.8809 5.87521 9.72328C5.03886 9.10748 4.96459 9.10586 4.1308 9.72378C3.83004 9.94665 3.51222 10.0349 3.13621 9.97151C2.1901 9.81216 1.43808 8.95284 1.42065 7.9788C1.41426 7.62118 1.53702 7.31017 1.77162 7.04329C1.9657 6.8224 2.189 6.63334 2.42003 6.45583C2.81311 6.1539 3.13068 5.78646 3.40063 5.37141C3.59901 5.06637 3.78831 4.75374 4.05162 4.49768C4.61349 3.95124 5.39191 3.95111 5.95353 4.49743C6.14762 4.68612 6.30794 4.90291 6.44629 5.13386C6.80561 5.73325 7.26951 6.2301 7.82009 6.65422C8.1729 6.92595 8.48729 7.24056 8.56205 7.71789C8.57432 7.79632 8.58157 7.87538 8.58562 7.90919Z" fill="#3F8DB1"/>
<path d="M0 4.10761C0.00601521 3.72451 0.0742694 3.40181 0.25669 3.11206C0.633438 2.51354 1.3107 2.4008 1.85833 2.84282C2.52135 3.37807 2.7368 4.47306 2.32666 5.22286C1.9531 5.90579 1.18942 6.03444 0.620426 5.50802C0.201939 5.12093 0.0274981 4.62484 0 4.10761Z" fill="#3F8DB1"/>
<path d="M2.31006 1.52682C2.31509 1.2536 2.40372 0.88032 2.6323 0.550666C3.15918 -0.209078 4.07742 -0.181607 4.53642 0.626492C4.943 1.34248 4.92397 2.07301 4.46669 2.76277C4.02476 3.42917 3.22265 3.45726 2.71087 2.84469C2.46228 2.54736 2.31055 2.09539 2.31006 1.52682Z" fill="#3F8DB1"/>
<path d="M7.69812 1.69803C7.67762 2.14205 7.5529 2.58432 7.20843 2.93747C6.7541 3.40323 6.11551 3.3959 5.66424 2.92479C5.02651 2.25902 5.04001 0.992362 5.69186 0.342254C6.18266 -0.147254 6.86041 -0.103872 7.29375 0.442691C7.5761 0.798697 7.69039 1.21027 7.69812 1.69803Z" fill="#3F8DB1"/>
<path d="M9.99761 3.96951C9.97024 4.61079 9.74645 5.16046 9.23246 5.55898C8.52242 6.10965 7.64346 5.78596 7.45171 4.90203C7.29593 4.18406 7.50769 3.56067 8.00388 3.04792C8.33828 2.70248 8.75529 2.51242 9.24277 2.68955C9.74903 2.87352 9.92961 3.30423 9.99651 3.80306C10.0039 3.85763 9.99761 3.91407 9.99761 3.96951Z" fill="#3F8DB1"/>
</svg>
