<svg width="550" height="107" viewBox="0 0 550 107" fill="none" xmlns="http://www.w3.org/2000/svg">
<path d="M162 16.472H150.192V13.4H177.36V16.472H165.552V47H162V16.472ZM195.179 21.56C198.347 21.56 200.859 22.488 202.715 24.344C204.603 26.168 205.547 28.84 205.547 32.36V47H202.139V32.696C202.139 30.072 201.483 28.072 200.171 26.696C198.859 25.32 196.987 24.632 194.555 24.632C191.835 24.632 189.675 25.448 188.075 27.08C186.507 28.68 185.723 30.904 185.723 33.752V47H182.315V11.384H185.723V26.168C186.651 24.696 187.931 23.56 189.562 22.76C191.195 21.96 193.067 21.56 195.179 21.56ZM236.877 35.432H215.757C215.949 38.056 216.957 40.184 218.781 41.816C220.605 43.416 222.909 44.216 225.693 44.216C227.261 44.216 228.701 43.944 230.013 43.4C231.325 42.824 232.461 41.992 233.421 40.904L235.341 43.112C234.221 44.456 232.813 45.48 231.117 46.184C229.453 46.888 227.613 47.24 225.597 47.24C223.005 47.24 220.701 46.696 218.685 45.608C216.701 44.488 215.149 42.952 214.029 41C212.909 39.048 212.349 36.84 212.349 34.376C212.349 31.912 212.877 29.704 213.933 27.752C215.021 25.8 216.493 24.28 218.349 23.192C220.237 22.104 222.349 21.56 224.685 21.56C227.021 21.56 229.117 22.104 230.973 23.192C232.829 24.28 234.285 25.8 235.341 27.752C236.397 29.672 236.925 31.88 236.925 34.376L236.877 35.432ZM224.685 24.488C222.253 24.488 220.205 25.272 218.541 26.84C216.909 28.376 215.981 30.392 215.757 32.888H233.661C233.437 30.392 232.493 28.376 230.829 26.84C229.197 25.272 227.149 24.488 224.685 24.488ZM269.72 13.4C274.008 13.4 277.368 14.424 279.8 16.472C282.232 18.52 283.448 21.336 283.448 24.92C283.448 28.504 282.232 31.32 279.8 33.368C277.368 35.384 274.008 36.392 269.72 36.392H260.696V47H257.144V13.4H269.72ZM269.624 33.272C272.952 33.272 275.496 32.552 277.256 31.112C279.016 29.64 279.896 27.576 279.896 24.92C279.896 22.2 279.016 20.12 277.256 18.68C275.496 17.208 272.952 16.472 269.624 16.472H260.696V33.272H269.624ZM312.252 35.432H291.132C291.324 38.056 292.332 40.184 294.156 41.816C295.98 43.416 298.284 44.216 301.068 44.216C302.636 44.216 304.076 43.944 305.388 43.4C306.7 42.824 307.836 41.992 308.796 40.904L310.716 43.112C309.596 44.456 308.188 45.48 306.492 46.184C304.828 46.888 302.988 47.24 300.972 47.24C298.38 47.24 296.076 46.696 294.06 45.608C292.076 44.488 290.524 42.952 289.404 41C288.284 39.048 287.724 36.84 287.724 34.376C287.724 31.912 288.252 29.704 289.308 27.752C290.396 25.8 291.868 24.28 293.724 23.192C295.612 22.104 297.724 21.56 300.06 21.56C302.396 21.56 304.492 22.104 306.348 23.192C308.204 24.28 309.66 25.8 310.716 27.752C311.772 29.672 312.3 31.88 312.3 34.376L312.252 35.432ZM300.06 24.488C297.628 24.488 295.58 25.272 293.916 26.84C292.284 28.376 291.356 30.392 291.132 32.888H309.036C308.812 30.392 307.868 28.376 306.204 26.84C304.572 25.272 302.524 24.488 300.06 24.488ZM322.5 26.696C323.3 25 324.484 23.72 326.052 22.856C327.652 21.992 329.62 21.56 331.956 21.56V24.872L331.14 24.824C328.484 24.824 326.404 25.64 324.9 27.272C323.396 28.904 322.644 31.192 322.644 34.136V47H319.236V21.752H322.5V26.696ZM346.854 14.024C345.382 14.024 344.262 14.424 343.494 15.224C342.758 16.024 342.39 17.208 342.39 18.776V21.752H350.166V24.632H342.486V47H339.078V24.632H334.566V21.752H339.078V18.632C339.078 16.328 339.734 14.504 341.046 13.16C342.39 11.816 344.278 11.144 346.71 11.144C347.67 11.144 348.598 11.288 349.494 11.576C350.39 11.832 351.142 12.216 351.75 12.728L350.598 15.272C349.606 14.44 348.358 14.024 346.854 14.024ZM376.33 35.432H355.21C355.402 38.056 356.41 40.184 358.234 41.816C360.058 43.416 362.362 44.216 365.146 44.216C366.714 44.216 368.154 43.944 369.466 43.4C370.778 42.824 371.914 41.992 372.874 40.904L374.794 43.112C373.674 44.456 372.266 45.48 370.57 46.184C368.906 46.888 367.066 47.24 365.05 47.24C362.458 47.24 360.154 46.696 358.138 45.608C356.154 44.488 354.602 42.952 353.482 41C352.362 39.048 351.802 36.84 351.802 34.376C351.802 31.912 352.33 29.704 353.386 27.752C354.474 25.8 355.946 24.28 357.802 23.192C359.69 22.104 361.802 21.56 364.138 21.56C366.474 21.56 368.57 22.104 370.426 23.192C372.282 24.28 373.738 25.8 374.794 27.752C375.85 29.672 376.378 31.88 376.378 34.376L376.33 35.432ZM364.138 24.488C361.706 24.488 359.658 25.272 357.994 26.84C356.362 28.376 355.434 30.392 355.21 32.888H373.114C372.89 30.392 371.946 28.376 370.282 26.84C368.65 25.272 366.602 24.488 364.138 24.488ZM393.779 47.24C391.283 47.24 389.043 46.696 387.059 45.608C385.107 44.52 383.571 43 382.451 41.048C381.331 39.064 380.771 36.84 380.771 34.376C380.771 31.912 381.331 29.704 382.451 27.752C383.571 25.8 385.107 24.28 387.059 23.192C389.043 22.104 391.283 21.56 393.779 21.56C395.955 21.56 397.891 21.992 399.587 22.856C401.315 23.688 402.675 24.92 403.667 26.552L401.123 28.28C400.291 27.032 399.235 26.104 397.955 25.496C396.675 24.856 395.283 24.536 393.779 24.536C391.955 24.536 390.307 24.952 388.835 25.784C387.395 26.584 386.259 27.736 385.427 29.24C384.627 30.744 384.227 32.456 384.227 34.376C384.227 36.328 384.627 38.056 385.427 39.56C386.259 41.032 387.395 42.184 388.835 43.016C390.307 43.816 391.955 44.216 393.779 44.216C395.283 44.216 396.675 43.912 397.955 43.304C399.235 42.696 400.291 41.768 401.123 40.52L403.667 42.248C402.675 43.88 401.315 45.128 399.587 45.992C397.859 46.824 395.923 47.24 393.779 47.24ZM423.939 45.464C423.299 46.04 422.499 46.488 421.539 46.808C420.611 47.096 419.635 47.24 418.611 47.24C416.243 47.24 414.419 46.6 413.139 45.32C411.859 44.04 411.219 42.232 411.219 39.896V24.632H406.707V21.752H411.219V16.232H414.627V21.752H422.307V24.632H414.627V39.704C414.627 41.208 414.995 42.36 415.731 43.16C416.499 43.928 417.587 44.312 418.995 44.312C419.699 44.312 420.371 44.2 421.011 43.976C421.683 43.752 422.259 43.432 422.739 43.016L423.939 45.464ZM443.425 13.4H457.105C460.657 13.4 463.793 14.12 466.513 15.56C469.233 16.968 471.345 18.952 472.849 21.512C474.353 24.04 475.105 26.936 475.105 30.2C475.105 33.464 474.353 36.376 472.849 38.936C471.345 41.464 469.233 43.448 466.513 44.888C463.793 46.296 460.657 47 457.105 47H443.425V13.4ZM456.913 43.928C459.857 43.928 462.433 43.352 464.641 42.2C466.849 41.016 468.561 39.4 469.777 37.352C470.993 35.272 471.601 32.888 471.601 30.2C471.601 27.512 470.993 25.144 469.777 23.096C468.561 21.016 466.849 19.4 464.641 18.248C462.433 17.064 459.857 16.472 456.913 16.472H446.977V43.928H456.913ZM492.681 47.24C490.249 47.24 488.057 46.696 486.105 45.608C484.153 44.488 482.617 42.952 481.497 41C480.377 39.048 479.817 36.84 479.817 34.376C479.817 31.912 480.377 29.704 481.497 27.752C482.617 25.8 484.153 24.28 486.105 23.192C488.057 22.104 490.249 21.56 492.681 21.56C495.113 21.56 497.305 22.104 499.257 23.192C501.209 24.28 502.729 25.8 503.817 27.752C504.937 29.704 505.497 31.912 505.497 34.376C505.497 36.84 504.937 39.048 503.817 41C502.729 42.952 501.209 44.488 499.257 45.608C497.305 46.696 495.113 47.24 492.681 47.24ZM492.681 44.216C494.473 44.216 496.073 43.816 497.481 43.016C498.921 42.184 500.041 41.016 500.841 39.512C501.641 38.008 502.041 36.296 502.041 34.376C502.041 32.456 501.641 30.744 500.841 29.24C500.041 27.736 498.921 26.584 497.481 25.784C496.073 24.952 494.473 24.536 492.681 24.536C490.889 24.536 489.273 24.952 487.833 25.784C486.425 26.584 485.305 27.736 484.473 29.24C483.673 30.744 483.273 32.456 483.273 34.376C483.273 36.296 483.673 38.008 484.473 39.512C485.305 41.016 486.425 42.184 487.833 43.016C489.273 43.816 490.889 44.216 492.681 44.216ZM535.831 21.752V43.928C535.831 48.216 534.775 51.384 532.663 53.432C530.583 55.512 527.431 56.552 523.207 56.552C520.871 56.552 518.647 56.2 516.535 55.496C514.455 54.824 512.759 53.88 511.447 52.664L513.175 50.072C514.391 51.16 515.863 52.008 517.591 52.616C519.351 53.224 521.191 53.528 523.111 53.528C526.311 53.528 528.663 52.776 530.167 51.272C531.671 49.8 532.423 47.496 532.423 44.36V41.144C531.367 42.744 529.975 43.96 528.247 44.792C526.551 45.624 524.663 46.04 522.583 46.04C520.215 46.04 518.055 45.528 516.103 44.504C514.183 43.448 512.663 41.992 511.543 40.136C510.455 38.248 509.911 36.12 509.911 33.752C509.911 31.384 510.455 29.272 511.543 27.416C512.663 25.56 514.183 24.12 516.103 23.096C518.023 22.072 520.183 21.56 522.583 21.56C524.727 21.56 526.663 21.992 528.391 22.856C530.119 23.72 531.511 24.968 532.567 26.6V21.752H535.831ZM522.919 43.016C524.743 43.016 526.391 42.632 527.863 41.864C529.335 41.064 530.471 39.96 531.271 38.552C532.103 37.144 532.519 35.544 532.519 33.752C532.519 31.96 532.103 30.376 531.271 29C530.471 27.592 529.335 26.504 527.863 25.736C526.423 24.936 524.775 24.536 522.919 24.536C521.095 24.536 519.447 24.92 517.975 25.688C516.535 26.456 515.399 27.544 514.567 28.952C513.767 30.36 513.367 31.96 513.367 33.752C513.367 35.544 513.767 37.144 514.567 38.552C515.399 39.96 516.535 41.064 517.975 41.864C519.447 42.632 521.095 43.016 522.919 43.016ZM163.104 73.024C161.632 73.024 160.512 73.424 159.744 74.224C159.008 75.024 158.64 76.208 158.64 77.776V80.752H166.416V83.632H158.736V106H155.328V83.632H150.816V80.752H155.328V77.632C155.328 75.328 155.984 73.504 157.296 72.16C158.64 70.816 160.528 70.144 162.96 70.144C163.92 70.144 164.848 70.288 165.744 70.576C166.64 70.832 167.392 71.216 168 71.728L166.848 74.272C165.856 73.44 164.608 73.024 163.104 73.024ZM180.916 106.24C178.484 106.24 176.292 105.696 174.34 104.608C172.388 103.488 170.852 101.952 169.732 100C168.612 98.048 168.052 95.84 168.052 93.376C168.052 90.912 168.612 88.704 169.732 86.752C170.852 84.8 172.388 83.28 174.34 82.192C176.292 81.104 178.484 80.56 180.916 80.56C183.348 80.56 185.54 81.104 187.492 82.192C189.444 83.28 190.964 84.8 192.052 86.752C193.172 88.704 193.732 90.912 193.732 93.376C193.732 95.84 193.172 98.048 192.052 100C190.964 101.952 189.444 103.488 187.492 104.608C185.54 105.696 183.348 106.24 180.916 106.24ZM180.916 103.216C182.708 103.216 184.308 102.816 185.716 102.016C187.156 101.184 188.276 100.016 189.076 98.512C189.876 97.008 190.276 95.296 190.276 93.376C190.276 91.456 189.876 89.744 189.076 88.24C188.276 86.736 187.156 85.584 185.716 84.784C184.308 83.952 182.708 83.536 180.916 83.536C179.124 83.536 177.508 83.952 176.068 84.784C174.66 85.584 173.54 86.736 172.708 88.24C171.908 89.744 171.508 91.456 171.508 93.376C171.508 95.296 171.908 97.008 172.708 98.512C173.54 100.016 174.66 101.184 176.068 102.016C177.508 102.816 179.124 103.216 180.916 103.216ZM203.954 85.696C204.754 84 205.938 82.72 207.506 81.856C209.106 80.992 211.074 80.56 213.41 80.56V83.872L212.594 83.824C209.938 83.824 207.858 84.64 206.354 86.272C204.85 87.904 204.098 90.192 204.098 93.136V106H200.69V80.752H203.954V85.696ZM244.758 94.384V106H241.254V94.384L227.814 72.4H231.606L243.126 91.264L254.646 72.4H258.198L244.758 94.384ZM270.447 106.24C268.015 106.24 265.823 105.696 263.871 104.608C261.919 103.488 260.383 101.952 259.263 100C258.143 98.048 257.583 95.84 257.583 93.376C257.583 90.912 258.143 88.704 259.263 86.752C260.383 84.8 261.919 83.28 263.871 82.192C265.823 81.104 268.015 80.56 270.447 80.56C272.879 80.56 275.071 81.104 277.023 82.192C278.975 83.28 280.495 84.8 281.583 86.752C282.703 88.704 283.263 90.912 283.263 93.376C283.263 95.84 282.703 98.048 281.583 100C280.495 101.952 278.975 103.488 277.023 104.608C275.071 105.696 272.879 106.24 270.447 106.24ZM270.447 103.216C272.239 103.216 273.839 102.816 275.247 102.016C276.687 101.184 277.807 100.016 278.607 98.512C279.407 97.008 279.807 95.296 279.807 93.376C279.807 91.456 279.407 89.744 278.607 88.24C277.807 86.736 276.687 85.584 275.247 84.784C273.839 83.952 272.239 83.536 270.447 83.536C268.655 83.536 267.039 83.952 265.599 84.784C264.191 85.584 263.071 86.736 262.239 88.24C261.439 89.744 261.039 91.456 261.039 93.376C261.039 95.296 261.439 97.008 262.239 98.512C263.071 100.016 264.191 101.184 265.599 102.016C267.039 102.816 268.655 103.216 270.447 103.216ZM312.973 80.752V106H309.709V101.392C308.813 102.928 307.581 104.128 306.013 104.992C304.445 105.824 302.653 106.24 300.637 106.24C297.341 106.24 294.733 105.328 292.813 103.504C290.925 101.648 289.981 98.944 289.981 95.392V80.752H293.389V95.056C293.389 97.712 294.045 99.728 295.357 101.104C296.669 102.48 298.541 103.168 300.973 103.168C303.629 103.168 305.725 102.368 307.261 100.768C308.797 99.136 309.565 96.88 309.565 94V80.752H312.973Z" fill="white"/>
<path d="M85.8554 79.092C85.8284 90.3564 76.4914 99.9427 65.8825 99.9999C63.1793 100.015 60.8923 98.809 58.7514 97.2329C50.3878 91.0749 49.6451 91.0587 41.3073 97.2378C38.2997 99.4666 35.1215 100.349 31.3614 99.7152C21.9003 98.1216 14.3801 89.5285 14.2057 79.7881C14.1419 76.2119 15.3695 73.1018 17.7154 70.433C19.6563 68.2241 21.8892 66.3334 24.1996 64.5584C28.1303 61.539 31.3061 57.8646 34.0056 53.7141C35.9894 50.6637 37.8823 47.5375 40.5155 44.9768C46.1342 39.5124 53.9184 39.5112 59.5346 44.9743C61.4754 46.8613 63.0787 49.0291 64.4622 51.3387C68.0553 57.3326 72.6944 62.301 78.2002 66.5423C81.7283 69.2595 84.8721 72.4057 85.6197 77.1789C85.7425 77.9633 85.8149 78.7539 85.8554 79.092Z" fill="white"/>
<path d="M0 41.0762C0.0601521 37.2451 0.742694 34.0182 2.5669 31.1207C6.33438 25.1355 13.107 24.008 18.5833 28.4283C25.2135 33.7808 27.368 44.7307 23.2666 52.2287C19.531 59.0579 11.8942 60.3445 6.20426 55.0802C2.01939 51.2094 0.274981 46.2484 0 41.0762Z" fill="white"/>
<path d="M23.1008 15.2682C23.1512 12.536 24.0375 8.8032 26.3233 5.50666C31.5921 -2.09078 40.7745 -1.81607 45.3645 6.26492C49.4302 13.4248 49.24 20.7301 44.6672 27.6277C40.2479 34.2917 32.2268 34.5726 27.1089 28.4469C24.623 25.4736 23.1057 20.9539 23.1008 15.2682Z" fill="white"/>
<path d="M76.9812 16.9762C76.7762 21.4163 75.529 25.839 72.0843 29.3705C67.541 34.0282 61.1551 33.9548 56.6424 29.2437C50.2651 22.586 50.4001 9.91947 56.9186 3.41839C61.8266 -1.47669 68.6041 -1.04287 72.9375 4.42276C75.761 7.98282 76.9039 12.0985 76.9812 16.9762Z" fill="white"/>
<path d="M99.9752 39.6951C99.7014 46.108 97.4635 51.6047 92.3236 55.5899C85.2232 61.0965 76.4336 57.8596 74.5161 49.0204C72.9583 41.8406 75.0759 35.6068 80.0378 30.4793C83.3818 27.0249 87.5519 25.1242 92.4267 26.8956C97.4893 28.7353 99.2951 33.0424 99.9641 38.0307C100.038 38.5764 99.9752 39.1407 99.9752 39.6951Z" fill="white"/>
</svg>
