<svg width="84" height="58" viewBox="0 0 84 58" fill="none" xmlns="http://www.w3.org/2000/svg">
<path d="M9 0C4.0659 0 0 4.066 0 9V49C0 53.934 4.0659 58 9 58H75C79.9341 58 84 53.934 84 49V9C84 4.066 79.9341 0 75 0H9ZM9.6562 6H74.375L43.8438 33.25C42.6799 34.2892 41.3854 34.2903 40.2188 33.25L9.6562 6ZM6 10.7812L26.5625 29.125L6 48.875V10.7812ZM78 10.7812V48.8438L57.5 29.0938L78 10.7812ZM53 33.125L72.5938 52H11.4062L31.0625 33.1562L36.2188 37.75C39.4964 40.6724 44.5658 40.6771 47.8438 37.75L53 33.125Z" fill="black"/>
</svg>
